<svg width="48" height="48" viewBox="0 0 48 48" fill="none" xmlns="http://www.w3.org/2000/svg">
<rect opacity="0.8" y="0.773132" width="47.0588" height="47.0588" rx="13.4454" fill="#1C1C1C"/>
<g clip-path="url(#clip0_2_107)">
<path d="M32.4932 30.465C32.9248 30.4652 33.3398 30.6315 33.6521 30.9293C33.9645 31.2272 34.1503 31.6338 34.1711 32.0649C34.1918 32.496 34.0459 32.9186 33.7636 33.2451C33.4812 33.5715 33.0841 33.7769 32.6545 33.8185L32.4932 33.8264H14.566C14.1344 33.8262 13.7194 33.6599 13.407 33.362C13.0946 33.0642 12.9088 32.6576 12.8881 32.2265C12.8673 31.7953 13.0133 31.3728 13.2956 31.0463C13.5779 30.7198 13.975 30.5145 14.4046 30.4729L14.566 30.465H32.4932ZM32.4932 22.6219C32.9389 22.6219 33.3664 22.799 33.6816 23.1141C33.9968 23.4293 34.1738 23.8568 34.1738 24.3026C34.1738 24.7483 33.9968 25.1758 33.6816 25.491C33.3664 25.8062 32.9389 25.9832 32.4932 25.9832H14.566C14.1202 25.9832 13.6928 25.8062 13.3776 25.491C13.0624 25.1758 12.8853 24.7483 12.8853 24.3026C12.8853 23.8568 13.0624 23.4293 13.3776 23.1141C13.6928 22.799 14.1202 22.6219 14.566 22.6219H32.4932ZM32.4932 14.7787C32.9389 14.7787 33.3664 14.9558 33.6816 15.271C33.9968 15.5862 34.1738 16.0137 34.1738 16.4594C34.1738 16.9052 33.9968 17.3326 33.6816 17.6478C33.3664 17.963 32.9389 18.1401 32.4932 18.1401H14.566C14.1202 18.1401 13.6928 17.963 13.3776 17.6478C13.0624 17.3326 12.8853 16.9052 12.8853 16.4594C12.8853 16.0137 13.0624 15.5862 13.3776 15.271C13.6928 14.9558 14.1202 14.7787 14.566 14.7787H32.4932Z" fill="#F8F8F8"/>
</g>
<defs>
<clipPath id="clip0_2_107">
<rect width="26.8908" height="26.8908" fill="white" transform="translate(10.0844 10.8572)"/>
</clipPath>
</defs>
</svg>
