<svg width="100" height="100" viewBox="0 0 100 100" fill="none" xmlns="http://www.w3.org/2000/svg">
<rect width="100" height="100" rx="16" fill="#3F92B6"/>
<path d="M49.9888 36.9022C49.8579 36.777 49.6838 36.7071 49.5027 36.7071C49.3216 36.7071 49.1475 36.777 49.0167 36.9022L32.836 52.3595C32.7673 52.4252 32.7126 52.5042 32.6753 52.5917C32.638 52.6791 32.6188 52.7733 32.6189 52.8684L32.6163 67.3756C32.6163 68.1215 32.9126 68.8369 33.4401 69.3643C33.9675 69.8918 34.6829 70.1881 35.4288 70.1881H43.8751C44.2481 70.1881 44.6057 70.0399 44.8695 69.7762C45.1332 69.5125 45.2813 69.1548 45.2813 68.7818V56.8287C45.2813 56.6422 45.3554 56.4634 45.4873 56.3315C45.6191 56.1997 45.798 56.1256 45.9845 56.1256H53.0157C53.2022 56.1256 53.381 56.1997 53.5129 56.3315C53.6448 56.4634 53.7188 56.6422 53.7188 56.8287V68.7818C53.7188 69.1548 53.867 69.5125 54.1307 69.7762C54.3944 70.0399 54.7521 70.1881 55.1251 70.1881H63.5679C64.3138 70.1881 65.0292 69.8918 65.5566 69.3643C66.084 68.8369 66.3804 68.1215 66.3804 67.3756V52.8684C66.3805 52.7733 66.3613 52.6791 66.324 52.5917C66.2867 52.5042 66.232 52.4252 66.1633 52.3595L49.9888 36.9022Z" fill="white"/>
<path d="M70.1464 49.4585L63.5722 43.1691V33.625C63.5722 33.252 63.424 32.8944 63.1603 32.6306C62.8966 32.3669 62.5389 32.2188 62.1659 32.2188H57.9472C57.5742 32.2188 57.2165 32.3669 56.9528 32.6306C56.6891 32.8944 56.5409 33.252 56.5409 33.625V36.4375L51.4503 31.5701C50.974 31.0885 50.2656 30.8125 49.5 30.8125C48.7371 30.8125 48.0305 31.0885 47.5541 31.571L28.8598 49.4568C28.3131 49.9841 28.2446 50.8516 28.742 51.4229C28.8669 51.5671 29.0199 51.6844 29.1916 51.7676C29.3633 51.8508 29.5501 51.8982 29.7407 51.9069C29.9313 51.9156 30.1216 51.8855 30.3002 51.8183C30.4787 51.7511 30.6418 51.6482 30.7793 51.516L49.0166 34.0891C49.1475 33.9639 49.3216 33.894 49.5027 33.894C49.6837 33.894 49.8578 33.9639 49.9887 34.0891L68.2278 51.516C68.4964 51.7737 68.8563 51.9143 69.2285 51.9071C69.6007 51.8998 69.9548 51.7453 70.2132 51.4774C70.7529 50.9184 70.708 49.9955 70.1464 49.4585Z" fill="white"/>
</svg>
