<svg width="100" height="100" viewBox="0 0 100 100" fill="none" xmlns="http://www.w3.org/2000/svg">
<rect width="100" height="100" rx="16" fill="#954BE2"/>
<g filter="url(#filter0_d_1_248)">
<path d="M49.5 41.0623C50.9063 35.5111 56.2175 32.6766 67.7813 32.6248C67.9661 32.6241 68.1493 32.66 68.3202 32.7304C68.4912 32.8008 68.6465 32.9044 68.7772 33.0351C68.9079 33.1658 69.0115 33.3211 69.0819 33.4921C69.1523 33.663 69.1882 33.8462 69.1875 34.031V59.3435C69.1875 59.7165 69.0394 60.0742 68.7756 60.3379C68.5119 60.6016 68.1542 60.7498 67.7813 60.7498C56.5313 60.7498 52.1851 63.0182 49.5 66.3748C46.8308 63.0349 42.4688 60.7498 31.2188 60.7498C30.3504 60.7498 29.8125 60.0423 29.8125 59.1739V34.031C29.8118 33.8462 29.8477 33.663 29.9181 33.4921C29.9886 33.3211 30.0921 33.1658 30.2228 33.0351C30.3536 32.9044 30.5089 32.8008 30.6798 32.7304C30.8507 32.66 31.0339 32.6241 31.2188 32.6248C42.7825 32.6766 48.0938 35.5111 49.5 41.0623Z" fill="white" stroke="white" stroke-width="2.8125" stroke-linecap="round" stroke-linejoin="round"/>
<path d="M49.5 41.0625V66.375" stroke="white" stroke-width="2.8125" stroke-linecap="round" stroke-linejoin="round"/>
</g>
<defs>
<filter id="filter0_d_1_248" x="27" y="27" width="45" height="50.625" filterUnits="userSpaceOnUse" color-interpolation-filters="sRGB">
<feFlood flood-opacity="0" result="BackgroundImageFix"/>
<feColorMatrix in="SourceAlpha" type="matrix" values="0 0 0 0 0 0 0 0 0 0 0 0 0 0 0 0 0 0 127 0" result="hardAlpha"/>
<feOffset dy="5.625"/>
<feComposite in2="hardAlpha" operator="out"/>
<feColorMatrix type="matrix" values="0 0 0 0 0.270588 0 0 0 0 0.101961 0 0 0 0 0.811765 0 0 0 1 0"/>
<feBlend mode="normal" in2="BackgroundImageFix" result="effect1_dropShadow_1_248"/>
<feBlend mode="normal" in="SourceGraphic" in2="effect1_dropShadow_1_248" result="shape"/>
</filter>
</defs>
</svg>
