<svg width="100" height="100" viewBox="0 0 100 100" fill="none" xmlns="http://www.w3.org/2000/svg">
<rect width="100" height="100" rx="16" fill="#FD8C73"/>
<g filter="url(#filter0_d_1_256)">
<path d="M57.4935 39.6562C57.149 44.303 53.6264 46.6875 49.7592 46.6875C45.892 46.6875 42.3632 44.3039 42.0248 39.6562C41.6732 34.8223 45.101 31.2188 49.7592 31.2188C54.4174 31.2188 57.8451 34.9102 57.4935 39.6562Z" fill="white"/>
<path d="M57.4935 39.6562C57.149 44.303 53.6264 46.6875 49.7592 46.6875C45.892 46.6875 42.3632 44.3039 42.0248 39.6562C41.6732 34.8223 45.101 31.2188 49.7592 31.2188C54.4174 31.2188 57.8451 34.9102 57.4935 39.6562Z" stroke="white" stroke-width="2.8125" stroke-linecap="round" stroke-linejoin="round"/>
</g>
<g filter="url(#filter1_d_1_256)">
<path d="M49.5002 52.3125C41.8537 52.3125 34.093 56.5313 32.6569 64.4941C32.4837 65.4539 33.0269 66.375 34.0315 66.375H64.969C65.9744 66.375 66.5176 65.4539 66.3444 64.4941C64.9074 56.5313 57.1467 52.3125 49.5002 52.3125Z" fill="white"/>
<path d="M49.5002 52.3125C41.8537 52.3125 34.093 56.5313 32.6569 64.4941C32.4837 65.4539 33.0269 66.375 34.0315 66.375H64.969C65.9744 66.375 66.5176 65.4539 66.3444 64.4941C64.9074 56.5313 57.1467 52.3125 49.5002 52.3125Z" stroke="white" stroke-width="2.8125" stroke-miterlimit="10"/>
</g>
<defs>
<filter id="filter0_d_1_256" x="40.5937" y="29.8125" width="18.3309" height="21.2813" filterUnits="userSpaceOnUse" color-interpolation-filters="sRGB">
<feFlood flood-opacity="0" result="BackgroundImageFix"/>
<feColorMatrix in="SourceAlpha" type="matrix" values="0 0 0 0 0 0 0 0 0 0 0 0 0 0 0 0 0 0 127 0" result="hardAlpha"/>
<feOffset dy="3"/>
<feComposite in2="hardAlpha" operator="out"/>
<feColorMatrix type="matrix" values="0 0 0 0 0.917587 0 0 0 0 0.468523 0 0 0 0 0.369173 0 0 0 1 0"/>
<feBlend mode="normal" in2="BackgroundImageFix" result="effect1_dropShadow_1_256"/>
<feBlend mode="normal" in="SourceGraphic" in2="effect1_dropShadow_1_256" result="shape"/>
</filter>
<filter id="filter1_d_1_256" x="31.2189" y="50.9062" width="36.5634" height="19.875" filterUnits="userSpaceOnUse" color-interpolation-filters="sRGB">
<feFlood flood-opacity="0" result="BackgroundImageFix"/>
<feColorMatrix in="SourceAlpha" type="matrix" values="0 0 0 0 0 0 0 0 0 0 0 0 0 0 0 0 0 0 127 0" result="hardAlpha"/>
<feOffset dy="3"/>
<feComposite in2="hardAlpha" operator="out"/>
<feColorMatrix type="matrix" values="0 0 0 0 0.917587 0 0 0 0 0.468523 0 0 0 0 0.369173 0 0 0 1 0"/>
<feBlend mode="normal" in2="BackgroundImageFix" result="effect1_dropShadow_1_256"/>
<feBlend mode="normal" in="SourceGraphic" in2="effect1_dropShadow_1_256" result="shape"/>
</filter>
</defs>
</svg>
